<svg xmlns="http://www.w3.org/2000/svg" xmlns:xlink="http://www.w3.org/1999/xlink"><defs><symbol viewBox="0 0 48 48" fill="none" id="agreement"><rect x="8" y="4" width="32" height="40" rx="2" stroke="currentColor" stroke-width="3" stroke-linecap="round" stroke-linejoin="round" /><path d="M16 4h9v16l-4.5-4-4.5 4V4z" stroke="currentColor" stroke-width="3" stroke-linecap="round" stroke-linejoin="round" /><path d="M16 28h10M16 34h16" stroke="currentColor" stroke-width="3" stroke-linecap="round" /></symbol><symbol viewBox="0 0 48 48" fill="none" id="close"><path fill="transparent" fill-opacity=".01" d="M0 0h48v48H0z" /><path d="M8 8l32 32M8 40L40 8" stroke="currentColor" stroke-width="4" stroke-linecap="round" stroke-linejoin="round" /></symbol><symbol viewBox="0 0 48 48" fill="none" id="download"><path fill="#fff" fill-opacity=".01" d="M0 0h48v48H0z" /><path d="M6 24.008V42h36V24" stroke="currentColor" stroke-width="3" stroke-linecap="round" stroke-linejoin="round" /><path d="M33 23l-9 9-9-9M23.992 6v26" stroke="currentColor" stroke-width="3" stroke-linecap="round" stroke-linejoin="round" /></symbol><symbol viewBox="0 0 48 48" fill="none" id="download-two"><path fill="#fff" fill-opacity=".01" d="M0 0h48v48H0z" /><path d="M40.518 34.316A9.21 9.21 0 0044 24c-1.213-3.83-4.93-5.929-8.947-5.925h-2.321a14.737 14.737 0 10-25.31 13.428M24.009 41L24 23M30.364 34.636L24 41l-6.364-6.364" stroke="currentColor" stroke-width="3" stroke-linecap="round" stroke-linejoin="round" /></symbol><symbol viewBox="0 0 512.001 512.001" id="en"><path d="M503.172 423.725H8.828A8.829 8.829 0 010 414.897V97.104a8.829 8.829 0 018.828-8.828h494.345a8.829 8.829 0 018.828 8.828v317.793a8.83 8.83 0 01-8.829 8.828z" fill="#f5f5f5" /><g fill="#ff4b55"><path d="M512 114.081H0V97.104a8.829 8.829 0 018.828-8.828h494.345a8.829 8.829 0 018.828 8.828L512 114.081zM0 191.491h512v25.804H0zM0 139.881h512v25.804H0zM512 268.903H8.828A8.829 8.829 0 010 260.075v-16.977h512v25.805zM0 346.321h512v25.804H0zM503.172 423.725H8.828A8.829 8.829 0 010 414.897v-16.976h512v16.977a8.828 8.828 0 01-8.828 8.827zM0 294.711h512v25.804H0z" /></g><path d="M229.517 88.277H8.828A8.828 8.828 0 000 97.104v162.97a8.829 8.829 0 008.828 8.828h220.69a8.829 8.829 0 008.828-8.828V97.104a8.83 8.83 0 00-8.829-8.827z" fill="#41479b" /><g fill="#f5f5f5"><path d="M24.789 108.538l1.954 5.86 6.177.047c.8.007 1.131 1.027.488 1.502l-4.969 3.67 1.864 5.889c.242.762-.627 1.394-1.278.928L24 122.843l-5.025 3.592c-.651.465-1.518-.166-1.278-.928l1.864-5.889-4.969-3.67c-.643-.476-.312-1.495.488-1.502l6.177-.047 1.954-5.86c.252-.76 1.324-.76 1.578-.001zM24.789 139.192l1.954 5.86 6.177.047c.8.007 1.131 1.027.488 1.502l-4.969 3.67 1.864 5.889c.242.762-.627 1.394-1.278.928L24 153.497l-5.025 3.592c-.651.465-1.518-.166-1.278-.928l1.864-5.889-4.969-3.67c-.643-.476-.312-1.495.488-1.502l6.177-.047 1.954-5.86c.252-.759 1.324-.759 1.578-.001zM24.789 169.846l1.954 5.86 6.177.047c.8.007 1.131 1.027.488 1.502l-4.969 3.67 1.864 5.889c.242.762-.627 1.394-1.278.928L24 184.151l-5.025 3.592c-.651.465-1.518-.166-1.278-.928l1.864-5.889-4.969-3.67c-.643-.476-.312-1.495.488-1.502l6.177-.047 1.954-5.86c.252-.759 1.324-.759 1.578-.001zM24.789 200.501l1.954 5.86 6.177.047c.8.007 1.131 1.027.488 1.502l-4.969 3.67 1.864 5.889c.242.762-.627 1.394-1.278.928L24 214.806l-5.025 3.592c-.651.465-1.518-.166-1.278-.928l1.864-5.889-4.969-3.67c-.643-.476-.312-1.495.488-1.502l6.177-.047 1.954-5.86c.252-.76 1.324-.76 1.578-.001zM24.789 231.155l1.954 5.86 6.177.047c.8.007 1.131 1.027.488 1.502l-4.969 3.67 1.864 5.889c.242.762-.627 1.394-1.278.928L24 245.46l-5.025 3.592c-.651.465-1.518-.166-1.278-.928l1.864-5.889-4.969-3.67c-.643-.476-.312-1.495.488-1.502l6.177-.047 1.954-5.86c.252-.761 1.324-.761 1.578-.001zM48.582 123.567l1.954 5.86 6.177.047c.8.007 1.131 1.027.488 1.502l-4.969 3.67 1.864 5.889c.242.762-.627 1.394-1.278.928l-5.025-3.592-5.025 3.592c-.651.465-1.518-.166-1.278-.928l1.864-5.889-4.969-3.67c-.643-.476-.312-1.495.488-1.502l6.177-.047 1.954-5.86c.251-.758 1.325-.758 1.578 0zM48.582 154.222l1.954 5.86 6.177.047c.8.007 1.131 1.027.488 1.502l-4.969 3.67 1.864 5.889c.242.762-.627 1.394-1.278.928l-5.025-3.592-5.025 3.592c-.651.465-1.518-.165-1.278-.928l1.864-5.889-4.969-3.67c-.643-.476-.312-1.495.488-1.502l6.177-.047 1.954-5.86c.251-.759 1.325-.759 1.578 0zM48.582 184.876l1.954 5.86 6.177.047c.8.007 1.131 1.027.488 1.502l-4.969 3.67 1.864 5.889c.242.762-.627 1.394-1.278.928l-5.025-3.592-5.025 3.592c-.651.465-1.518-.166-1.278-.928l1.864-5.889-4.969-3.67c-.643-.476-.312-1.495.488-1.502l6.177-.047 1.954-5.86c.251-.759 1.325-.759 1.578 0zM48.582 215.53l1.954 5.86 6.177.047c.8.007 1.131 1.027.488 1.502l-4.969 3.67 1.864 5.889c.242.762-.627 1.394-1.278.928l-5.025-3.592-5.025 3.592c-.651.465-1.518-.166-1.278-.928l1.864-5.889-4.969-3.67c-.643-.476-.312-1.495.488-1.502l6.177-.047 1.954-5.86c.251-.758 1.325-.758 1.578 0zM72.375 108.538l1.954 5.86 6.177.047c.8.007 1.131 1.027.488 1.502l-4.969 3.67 1.864 5.889c.242.762-.627 1.394-1.278.928l-5.025-3.592-5.025 3.592c-.651.465-1.518-.166-1.278-.928l1.864-5.889-4.969-3.67c-.643-.476-.312-1.495.488-1.502l6.177-.047 1.954-5.86c.252-.759 1.325-.759 1.578 0zM72.375 139.192l1.954 5.86 6.177.047c.8.007 1.131 1.027.488 1.502l-4.969 3.67 1.864 5.889c.242.762-.627 1.394-1.278.928l-5.025-3.592-5.025 3.592c-.651.465-1.518-.166-1.278-.928l1.864-5.889-4.969-3.67c-.643-.476-.312-1.495.488-1.502l6.177-.047 1.954-5.86c.252-.758 1.325-.758 1.578 0zM72.375 169.846l1.954 5.86 6.177.047c.8.007 1.131 1.027.488 1.502l-4.969 3.67 1.864 5.889c.242.762-.627 1.394-1.278.928l-5.025-3.592-5.025 3.592c-.651.465-1.518-.166-1.278-.928l1.864-5.889-4.969-3.67c-.643-.476-.312-1.495.488-1.502l6.177-.047 1.954-5.86c.252-.758 1.325-.758 1.578 0zM72.375 200.501l1.954 5.86 6.177.047c.8.007 1.131 1.027.488 1.502l-4.969 3.67 1.864 5.889c.242.762-.627 1.394-1.278.928l-5.025-3.592-5.025 3.592c-.651.465-1.518-.166-1.278-.928l1.864-5.889-4.969-3.67c-.643-.476-.312-1.495.488-1.502l6.177-.047 1.954-5.86c.252-.759 1.325-.759 1.578 0zM72.375 231.155l1.954 5.86 6.177.047c.8.007 1.131 1.027.488 1.502l-4.969 3.67 1.864 5.889c.242.762-.627 1.394-1.278.928l-5.025-3.592-5.025 3.592c-.651.465-1.518-.166-1.278-.928l1.864-5.889-4.969-3.67c-.643-.476-.312-1.495.488-1.502l6.177-.047 1.954-5.86c.252-.76 1.325-.76 1.578 0zM96.169 123.567l1.954 5.86 6.177.047c.8.007 1.131 1.027.488 1.502l-4.969 3.67 1.864 5.889c.242.762-.627 1.394-1.278.928l-5.025-3.592-5.025 3.592c-.651.465-1.518-.166-1.278-.928l1.864-5.889-4.969-3.67c-.643-.476-.312-1.495.488-1.502l6.177-.047 1.954-5.86c.251-.758 1.325-.758 1.578 0zM96.169 154.222l1.954 5.86 6.177.047c.8.007 1.131 1.027.488 1.502l-4.969 3.67 1.864 5.889c.242.762-.627 1.394-1.278.928l-5.025-3.592-5.025 3.592c-.651.465-1.518-.165-1.278-.928l1.864-5.889-4.969-3.67c-.643-.476-.312-1.495.488-1.502l6.177-.047 1.954-5.86c.251-.759 1.325-.759 1.578 0zM96.169 184.876l1.954 5.86 6.177.047c.8.007 1.131 1.027.488 1.502l-4.969 3.67 1.864 5.889c.242.762-.627 1.394-1.278.928l-5.025-3.592-5.025 3.592c-.651.465-1.518-.166-1.278-.928l1.864-5.889-4.969-3.67c-.643-.476-.312-1.495.488-1.502l6.177-.047 1.954-5.86c.251-.759 1.325-.759 1.578 0zM96.169 215.53l1.954 5.86 6.177.047c.8.007 1.131 1.027.488 1.502l-4.969 3.67 1.864 5.889c.242.762-.627 1.394-1.278.928l-5.025-3.592-5.025 3.592c-.651.465-1.518-.166-1.278-.928l1.864-5.889-4.969-3.67c-.643-.476-.312-1.495.488-1.502l6.177-.047 1.954-5.86c.251-.758 1.325-.758 1.578 0zM119.962 108.538l1.954 5.86 6.177.047c.8.007 1.131 1.027.488 1.502l-4.969 3.67 1.864 5.889c.242.762-.627 1.394-1.278.928l-5.026-3.592-5.025 3.592c-.651.465-1.518-.166-1.278-.928l1.864-5.889-4.969-3.67c-.643-.476-.312-1.495.488-1.502l6.177-.047 1.954-5.86c.253-.759 1.326-.759 1.579 0zM119.962 139.192l1.954 5.86 6.177.047c.8.007 1.131 1.027.488 1.502l-4.969 3.67 1.864 5.889c.242.762-.627 1.394-1.278.928l-5.026-3.592-5.025 3.592c-.651.465-1.518-.166-1.278-.928l1.864-5.889-4.969-3.67c-.643-.476-.312-1.495.488-1.502l6.177-.047 1.954-5.86c.253-.758 1.326-.758 1.579 0zM119.962 169.846l1.954 5.86 6.177.047c.8.007 1.131 1.027.488 1.502l-4.969 3.67 1.864 5.889c.242.762-.627 1.394-1.278.928l-5.026-3.592-5.025 3.592c-.651.465-1.518-.166-1.278-.928l1.864-5.889-4.969-3.67c-.643-.476-.312-1.495.488-1.502l6.177-.047 1.954-5.86c.253-.758 1.326-.758 1.579 0zM119.962 200.501l1.954 5.86 6.177.047c.8.007 1.131 1.027.488 1.502l-4.969 3.67 1.864 5.889c.242.762-.627 1.394-1.278.928l-5.026-3.592-5.025 3.592c-.651.465-1.518-.166-1.278-.928l1.864-5.889-4.969-3.67c-.643-.476-.312-1.495.488-1.502l6.177-.047 1.954-5.86c.253-.759 1.326-.759 1.579 0zM119.962 231.155l1.954 5.86 6.177.047c.8.007 1.131 1.027.488 1.502l-4.969 3.67 1.864 5.889c.242.762-.627 1.394-1.278.928l-5.026-3.592-5.025 3.592c-.651.465-1.518-.166-1.278-.928l1.864-5.889-4.969-3.67c-.643-.476-.312-1.495.488-1.502l6.177-.047 1.954-5.86c.253-.76 1.326-.76 1.579 0zM143.755 123.567l1.954 5.86 6.177.047c.8.007 1.131 1.027.488 1.502l-4.969 3.67 1.864 5.889c.242.762-.627 1.394-1.278.928l-5.025-3.592-5.025 3.592c-.651.465-1.518-.166-1.278-.928l1.864-5.889-4.969-3.67c-.643-.476-.312-1.495.488-1.502l6.177-.047 1.954-5.86c.253-.758 1.325-.758 1.578 0zM143.755 154.222l1.954 5.86 6.177.047c.8.007 1.131 1.027.488 1.502l-4.969 3.67 1.864 5.889c.242.762-.627 1.394-1.278.928l-5.025-3.592-5.025 3.592c-.651.465-1.518-.165-1.278-.928l1.864-5.889-4.969-3.67c-.643-.476-.312-1.495.488-1.502l6.177-.047 1.954-5.86c.253-.759 1.325-.759 1.578 0zM143.755 184.876l1.954 5.86 6.177.047c.8.007 1.131 1.027.488 1.502l-4.969 3.67 1.864 5.889c.242.762-.627 1.394-1.278.928l-5.025-3.592-5.025 3.592c-.651.465-1.518-.166-1.278-.928l1.864-5.889-4.969-3.67c-.643-.476-.312-1.495.488-1.502l6.177-.047 1.954-5.86c.253-.759 1.325-.759 1.578 0zM143.755 215.53l1.954 5.86 6.177.047c.8.007 1.131 1.027.488 1.502l-4.969 3.67 1.864 5.889c.242.762-.627 1.394-1.278.928l-5.025-3.592-5.025 3.592c-.651.465-1.518-.166-1.278-.928l1.864-5.889-4.969-3.67c-.643-.476-.312-1.495.488-1.502l6.177-.047 1.954-5.86c.253-.758 1.325-.758 1.578 0zM167.549 108.538l1.954 5.86 6.177.047c.8.007 1.131 1.027.488 1.502l-4.969 3.67 1.864 5.889c.242.762-.627 1.394-1.278.928l-5.025-3.592-5.025 3.592c-.651.465-1.518-.166-1.278-.928l1.864-5.889-4.969-3.67c-.643-.476-.312-1.495.488-1.502l6.177-.047 1.954-5.86c.251-.759 1.325-.759 1.578 0zM167.549 139.192l1.954 5.86 6.177.047c.8.007 1.131 1.027.488 1.502l-4.969 3.67 1.864 5.889c.242.762-.627 1.394-1.278.928l-5.025-3.592-5.025 3.592c-.651.465-1.518-.166-1.278-.928l1.864-5.889-4.969-3.67c-.643-.476-.312-1.495.488-1.502l6.177-.047 1.954-5.86c.251-.758 1.325-.758 1.578 0zM167.549 169.846l1.954 5.86 6.177.047c.8.007 1.131 1.027.488 1.502l-4.969 3.67 1.864 5.889c.242.762-.627 1.394-1.278.928l-5.025-3.592-5.025 3.592c-.651.465-1.518-.166-1.278-.928l1.864-5.889-4.969-3.67c-.643-.476-.312-1.495.488-1.502l6.177-.047 1.954-5.86c.251-.758 1.325-.758 1.578 0zM167.549 200.501l1.954 5.86 6.177.047c.8.007 1.131 1.027.488 1.502l-4.969 3.67 1.864 5.889c.242.762-.627 1.394-1.278.928l-5.025-3.592-5.025 3.592c-.651.465-1.518-.166-1.278-.928l1.864-5.889-4.969-3.67c-.643-.476-.312-1.495.488-1.502l6.177-.047 1.954-5.86c.251-.759 1.325-.759 1.578 0zM167.549 231.155l1.954 5.86 6.177.047c.8.007 1.131 1.027.488 1.502l-4.969 3.67 1.864 5.889c.242.762-.627 1.394-1.278.928l-5.025-3.592-5.025 3.592c-.651.465-1.518-.166-1.278-.928l1.864-5.889-4.969-3.67c-.643-.476-.312-1.495.488-1.502l6.177-.047 1.954-5.86c.251-.76 1.325-.76 1.578 0zM191.342 123.567l1.954 5.86 6.177.047c.8.007 1.131 1.027.488 1.502l-4.969 3.67 1.864 5.889c.242.762-.627 1.394-1.278.928l-5.025-3.592-5.025 3.592c-.651.465-1.518-.166-1.278-.928l1.864-5.889-4.969-3.67c-.643-.476-.312-1.495.488-1.502l6.177-.047 1.954-5.86c.252-.758 1.326-.758 1.578 0zM191.342 154.222l1.954 5.86 6.177.047c.8.007 1.131 1.027.488 1.502l-4.969 3.67 1.864 5.889c.242.762-.627 1.394-1.278.928l-5.025-3.592-5.025 3.592c-.651.465-1.518-.165-1.278-.928l1.864-5.889-4.969-3.67c-.643-.476-.312-1.495.488-1.502l6.177-.047 1.954-5.86c.252-.759 1.326-.759 1.578 0zM191.342 184.876l1.954 5.86 6.177.047c.8.007 1.131 1.027.488 1.502l-4.969 3.67 1.864 5.889c.242.762-.627 1.394-1.278.928l-5.025-3.592-5.025 3.592c-.651.465-1.518-.166-1.278-.928l1.864-5.889-4.969-3.67c-.643-.476-.312-1.495.488-1.502l6.177-.047 1.954-5.86c.252-.759 1.326-.759 1.578 0zM191.342 215.53l1.954 5.86 6.177.047c.8.007 1.131 1.027.488 1.502l-4.969 3.67 1.864 5.889c.242.762-.627 1.394-1.278.928l-5.025-3.592-5.025 3.592c-.651.465-1.518-.166-1.278-.928l1.864-5.889-4.969-3.67c-.643-.476-.312-1.495.488-1.502l6.177-.047 1.954-5.86c.252-.758 1.326-.758 1.578 0zM215.136 108.538l1.954 5.86 6.177.047c.8.007 1.131 1.027.488 1.502l-4.969 3.67 1.864 5.889c.242.762-.627 1.394-1.278.928l-5.025-3.592-5.025 3.592c-.651.465-1.518-.166-1.278-.928l1.864-5.889-4.969-3.67c-.643-.476-.312-1.495.488-1.502l6.177-.047 1.954-5.86c.252-.759 1.324-.759 1.578 0zM215.136 139.192l1.954 5.86 6.177.047c.8.007 1.131 1.027.488 1.502l-4.969 3.67 1.864 5.889c.242.762-.627 1.394-1.278.928l-5.025-3.592-5.025 3.592c-.651.465-1.518-.166-1.278-.928l1.864-5.889-4.969-3.67c-.643-.476-.312-1.495.488-1.502l6.177-.047 1.954-5.86c.252-.758 1.324-.758 1.578 0zM215.136 169.846l1.954 5.86 6.177.047c.8.007 1.131 1.027.488 1.502l-4.969 3.67 1.864 5.889c.242.762-.627 1.394-1.278.928l-5.025-3.592-5.025 3.592c-.651.465-1.518-.166-1.278-.928l1.864-5.889-4.969-3.67c-.643-.476-.312-1.495.488-1.502l6.177-.047 1.954-5.86c.252-.758 1.324-.758 1.578 0zM215.136 200.501l1.954 5.86 6.177.047c.8.007 1.131 1.027.488 1.502l-4.969 3.67 1.864 5.889c.242.762-.627 1.394-1.278.928l-5.025-3.592-5.025 3.592c-.651.465-1.518-.166-1.278-.928l1.864-5.889-4.969-3.67c-.643-.476-.312-1.495.488-1.502l6.177-.047 1.954-5.86c.252-.759 1.324-.759 1.578 0zM215.136 231.155l1.954 5.86 6.177.047c.8.007 1.131 1.027.488 1.502l-4.969 3.67 1.864 5.889c.242.762-.627 1.394-1.278.928l-5.025-3.592-5.025 3.592c-.651.465-1.518-.166-1.278-.928l1.864-5.889-4.969-3.67c-.643-.476-.312-1.495.488-1.502l6.177-.047 1.954-5.86c.252-.76 1.324-.76 1.578 0z" /></g></symbol><symbol viewBox="0 0 48 48" fill="none" id="expand-text-input"><path d="M22 42H6V26M26 6h16v16" stroke="#333" stroke-width="3" stroke-linecap="round" stroke-linejoin="round" /></symbol><symbol viewBox="0 0 48 48" fill="none" id="facebook"><path fill="#fff" fill-opacity=".01" d="M0 0h48v48H0z" /><path d="M36 12.6h-6.013c-1.086 0-1.967.88-1.967 1.967v6.9H36l-1.169 7.597h-6.81V43h-8.776V29.064H12v-7.597h7.151l.094-7.21-.013-1.31A7.868 7.868 0 0127.099 5H36v7.6z" fill="currentColor" stroke="currentColor" stroke-width="3" stroke-linejoin="round" /></symbol><symbol viewBox="0 0 48 48" fill="none" id="file-focus-one"><path d="M40 23v-9L31 4H10a2 2 0 00-2 2v36a2 2 0 002 2h12" stroke="currentColor" stroke-width="5" stroke-linecap="round" stroke-linejoin="round" /><path d="M34 27l2.523 5.527 6.036.692-4.476 4.108 1.207 5.954L34 40.293l-5.29 2.988 1.207-5.954-4.477-4.108 6.037-.692L34 27zM30 4v10h10" stroke="currentColor" stroke-width="3" stroke-linecap="round" stroke-linejoin="round" /></symbol><symbol viewBox="0 0 48 48" fill="none" id="home"><path fill="#fff" fill-opacity=".01" d="M0 0h48v48H0z" /><path d="M9 18v24h30V18L24 6 9 18z" /><path d="M9 42V18l-5 4L24 6l20 16-5-4v24H9z" stroke="currentColor" stroke-width="4" stroke-linecap="round" stroke-linejoin="round" /><path d="M19 29v13h10V29H19z" stroke="currentColor" stroke-width="4" stroke-linejoin="round" /><path d="M9 42h30" stroke="currentColor" stroke-width="4" stroke-linecap="round" /></symbol><symbol viewBox="0 0 48 48" fill="none" id="humburger"><path fill="#fff" fill-opacity=".01" d="M0 0h48v48H0z" /><path d="M7.95 11.95h32M7.95 23.95h32M7.95 35.95h32" stroke="currentColor" stroke-width="3" stroke-linecap="round" stroke-linejoin="round" /></symbol><symbol viewBox="0 0 512.001 512.001" id="id"><path d="M512 256H0V97.103a8.829 8.829 0 018.828-8.828h494.345a8.829 8.829 0 018.828 8.828L512 256z" fill="#c8414b" /><path d="M0 256h512v158.897a8.829 8.829 0 01-8.828 8.828H8.828A8.829 8.829 0 010 414.897V256z" fill="#f5f5f5" /></symbol><symbol viewBox="0 0 48 48" fill="none" id="instagram"><path fill="#fff" fill-opacity=".01" d="M0 0h48v48H0z" /><path d="M34 6H14a8 8 0 00-8 8v20a8 8 0 008 8h20a8 8 0 008-8V14a8 8 0 00-8-8z" stroke="currentColor" stroke-width="3" stroke-linejoin="round" /><path d="M24 32a8 8 0 100-16 8 8 0 000 16z" stroke="currentColor" stroke-width="3" stroke-linejoin="round" /><path d="M35 15a2 2 0 100-4 2 2 0 000 4z" fill="currentColor" /></symbol><symbol viewBox="0 0 48 48" fill="none" id="instagram-one"><circle cx="9" cy="8" r="4" stroke="currentColor" stroke-width="3" /><path stroke="currentColor" stroke-width="3" stroke-linejoin="round" d="M5 18h8v25H5zM21 27.5V43h7V29c0-2.5 1.5-4.5 4-4.5s4 2.5 4 4.5v14h7V27.5c0-3-3.5-9.5-11-9.5s-11 6.5-11 9.5z" /></symbol><symbol viewBox="0 0 48 48" fill="none" id="iphone"><rect x="11" y="4" width="26" height="40" rx="3" stroke="currentColor" stroke-width="3" /><path d="M22 10h4M20 38h8" stroke="currentColor" stroke-width="3" stroke-linecap="round" stroke-linejoin="round" /></symbol><symbol viewBox="0 0 24 24" id="linkedin"><path d="M23.994 24v-.001H24v-8.802c0-4.306-.927-7.623-5.961-7.623-2.42 0-4.044 1.328-4.707 2.587h-.07V7.976H8.489v16.023h4.97v-7.934c0-2.089.396-4.109 2.983-4.109 2.549 0 2.587 2.384 2.587 4.243V24zM.396 7.977h4.976V24H.396zM2.882 0C1.291 0 0 1.291 0 2.882s1.291 2.909 2.882 2.909 2.882-1.318 2.882-2.909A2.884 2.884 0 002.882 0z" /></symbol><symbol viewBox="0 0 48 48" fill="none" id="local-two"><path fill="#fff" fill-opacity=".01" d="M0 0h48v48H0z" /><path d="M24 44s15-12 15-25c0-8.284-6.716-15-15-15-8.284 0-15 6.716-15 15 0 13 15 25 15 25z" fill="currentColor" stroke="currentColor" stroke-width="3" stroke-linejoin="round" /><path d="M24 25a6 6 0 100-12 6 6 0 000 12z" fill="#FFF" stroke="#FFF" stroke-width="3" stroke-linejoin="round" /></symbol><symbol viewBox="0 0 48 48" fill="none" id="mail"><path fill="#fff" fill-opacity=".01" d="M0 0h48v48H0z" /><path d="M4 39h40V9H4v30z" stroke="currentColor" stroke-width="4" stroke-linejoin="round" /><path d="M4 9l20 15L44 9" stroke="currentColor" stroke-width="4" stroke-linecap="round" stroke-linejoin="round" /><path d="M24 9H4v15M44 24V9H24" stroke="currentColor" stroke-width="4" stroke-linecap="round" stroke-linejoin="round" /></symbol><symbol viewBox="0 0 48 48" fill="none" id="mail-fill"><path fill="#fff" fill-opacity=".01" d="M0 0h48v48H0z" /><path d="M4 39h40V9H4v30z" fill="currentColor" stroke="currentColor" stroke-width="3" stroke-linejoin="round" /><path d="M4 9l20 15L44 9" stroke="#FFF" stroke-width="3" stroke-linecap="round" stroke-linejoin="round" /><path d="M24 9H4v15M44 24V9H24" stroke="currentColor" stroke-width="3" stroke-linecap="round" stroke-linejoin="round" /></symbol><symbol viewBox="0 0 48 48" fill="none" id="page"><path fill="#fff" fill-opacity=".01" d="M0 0h48v48H0z" /><rect x="4" y="4" width="40" height="40" rx="3" stroke="currentColor" stroke-width="4" stroke-linejoin="round" /><path d="M4 17.333h40M17.333 44V17.333" stroke="currentColor" stroke-width="4" stroke-linecap="round" stroke-linejoin="round" /></symbol><symbol viewBox="0 0 48 49" fill="none" id="phone-telephone"><path fill="#fff" fill-opacity=".01" d="M0 0h48v48H0z" /><path d="M16.996 7.686a2 2 0 011.749 1.03l2.446 4.406a2 2 0 01.04 1.865l-2.356 4.714s.683 3.511 3.541 6.37c2.859 2.858 6.358 3.53 6.358 3.53l4.713-2.357a2 2 0 011.866.04l4.42 2.458A2 2 0 0140.8 31.49v5.073c0 2.584-2.4 4.45-4.848 3.624-5.028-1.697-12.833-4.927-17.78-9.874-4.946-4.947-8.177-12.751-9.873-17.78-.826-2.447 1.04-4.847 3.624-4.847h5.072z" fill="currentColor" stroke="currentColor" stroke-width="3" stroke-linejoin="round" /></symbol><symbol viewBox="0 0 492.004 492.004" id="right-arrow"><path d="M382.678 226.804L163.73 7.86C158.666 2.792 151.906 0 144.698 0s-13.968 2.792-19.032 7.86l-16.124 16.12c-10.492 10.504-10.492 27.576 0 38.064L293.398 245.9l-184.06 184.06c-5.064 5.068-7.86 11.824-7.86 19.028 0 7.212 2.796 13.968 7.86 19.04l16.124 16.116c5.068 5.068 11.824 7.86 19.032 7.86s13.968-2.792 19.032-7.86L382.678 265c5.076-5.084 7.864-11.872 7.848-19.088.016-7.244-2.772-14.028-7.848-19.108z" /></symbol><symbol viewBox="0 0 48 48" fill="none" id="send"><path d="M48 0H0v48h48V0z" fill="#fff" fill-opacity=".01" /><path d="M43 5L29.7 43l-7.6-17.1L5 18.3 43 5z" stroke="currentColor" stroke-width="4" stroke-linejoin="round" /><path d="M43 5L22.1 25.9" stroke="currentColor" stroke-width="4" stroke-linecap="round" stroke-linejoin="round" /></symbol><symbol viewBox="0 0 48 48" fill="none" id="telegram"><path d="M41.42 7.309s3.885-1.515 3.56 2.164c-.107 1.515-1.078 6.818-1.834 12.553l-2.59 16.99s-.216 2.489-2.159 2.922c-1.942.432-4.856-1.515-5.396-1.948-.432-.325-8.094-5.195-10.792-7.575-.756-.65-1.62-1.948.108-3.463L33.648 18.13c1.295-1.298 2.59-4.328-2.806-.649l-15.11 10.28s-1.727 1.083-4.964.109l-7.016-2.165s-2.59-1.623 1.835-3.246c10.793-5.086 24.068-10.28 35.831-15.15z" fill="currentColor" /></symbol><symbol viewBox="0 0 48 48" fill="none" id="twitter"><path fill="#fff" fill-opacity=".01" d="M0 0h48v48H0z" /><path d="M5 35.762c1.929 1.067 15.891 9.115 25.82 2.912 9.928-6.203 9.38-16.89 9.38-21.788.9-1.884 2.8-2.842 2.8-7.942-1.866 1.724-3.721 2.31-5.565 1.76-1.806-2.754-4.291-3.973-7.456-3.655-4.746.477-6.482 5.133-5.971 11.158-7.318 3.7-13.056-2.683-16.014-7.503-.988 3.796-1.94 8.354 0 13.395 1.294 3.362 4.405 6.203 9.331 8.526C12.332 35.33 8.224 36.377 5 35.762z" fill="currentColor" stroke="currentColor" stroke-width="3" stroke-linejoin="round" /></symbol><symbol viewBox="0 0 48 48" fill="none" id="user"><circle cx="24" cy="12" r="8" stroke="currentColor" stroke-width="4" stroke-linecap="round" stroke-linejoin="round" /><path d="M42 44c0-9.941-8.059-18-18-18S6 34.059 6 44" stroke="currentColor" stroke-width="4" stroke-linecap="round" stroke-linejoin="round" /></symbol><symbol viewBox="0 0 48 48" id="waterfalls-h"><path fill="#fff" fill-opacity=".01" fill-rule="evenodd" d="M0 0h48v48H0z" /><g stroke-linejoin="round" stroke-width="3" stroke="currentColor" fill="currentColor"><path d="M6 6h14v11H6zM28 31h14v11H28zM28 6h14v17H28zM6 25h14v17H6z" /></g></symbol><symbol viewBox="0 0 512 512" id="whatsapp"><path d="M256.064 0h-.128C114.784 0 0 114.816 0 256c0 56 18.048 107.904 48.736 150.048l-31.904 95.104 98.4-31.456C155.712 496.512 204 512 256.064 512 397.216 512 512 397.152 512 256S397.216 0 256.064 0zm148.96 361.504c-6.176 17.44-30.688 31.904-50.24 36.128-13.376 2.848-30.848 5.12-89.664-19.264-75.232-31.168-123.68-107.616-127.456-112.576-3.616-4.96-30.4-40.48-30.4-77.216s18.656-54.624 26.176-62.304c6.176-6.304 16.384-9.184 26.176-9.184 3.168 0 6.016.16 8.576.288 7.52.32 11.296.768 16.256 12.64 6.176 14.88 21.216 51.616 23.008 55.392 1.824 3.776 3.648 8.896 1.088 13.856-2.4 5.12-4.512 7.392-8.288 11.744-3.776 4.352-7.36 7.68-11.136 12.352-3.456 4.064-7.36 8.416-3.008 15.936 4.352 7.36 19.392 31.904 41.536 51.616 28.576 25.44 51.744 33.568 60.032 37.024 6.176 2.56 13.536 1.952 18.048-2.848 5.728-6.176 12.8-16.416 20-26.496 5.12-7.232 11.584-8.128 18.368-5.568 6.912 2.4 43.488 20.48 51.008 24.224 7.52 3.776 12.48 5.568 14.304 8.736 1.792 3.168 1.792 18.048-4.384 35.52z" /></symbol></defs></svg>